<!DOCTYPE svg PUBLIC "-//W3C//DTD SVG 1.1//EN" "http://www.w3.org/Graphics/SVG/1.1/DTD/svg11.dtd">
<!-- Uploaded to: SVG Repo, www.svgrepo.com, Transformed by: SVG Repo Mixer Tools -->
<svg width="800px" height="800px" viewBox="-260 -260 1520.00 1520.00" id="Layer_2" version="1.1" xml:space="preserve" xmlns="http://www.w3.org/2000/svg" xmlns:xlink="http://www.w3.org/1999/xlink" fill="#ffffff">
<g id="SVGRepo_bgCarrier" stroke-width="0"/>
<g id="SVGRepo_tracerCarrier" stroke-linecap="round" stroke-linejoin="round"/>
<g id="SVGRepo_iconCarrier"> <g> <path d="M313.552,775.851c0,16.568,13.431,30,30,30h312.896c16.568,0,30-13.432,30-30v-53.012H313.552 V775.851z M500,745.096c10.632,0,19.25,8.618,19.25,19.25c0,10.631-8.618,19.25-19.25,19.25s-19.25-8.619-19.25-19.25 C480.75,753.714,489.368,745.096,500,745.096z" style="fill:#000000;"/> <path d="M656.45,203.112h-9.504c-0.519-5.036-4.773-8.963-9.946-8.963h-41.333 c-5.173,0-9.427,3.928-9.946,8.963H343.55c-16.57,0-30,13.43-30,30v34.37c-5.522,0.001-9.997,4.478-9.997,10v34.003 c0,5.522,4.476,9.999,9.997,10v376.357h372.9v-464.73C686.45,216.542,673.02,203.112,656.45,203.112z M424.33,250.742h151.34 c6.91,0,12.5,5.6,12.5,12.5c0,3.46-1.4,6.58-3.66,8.84c-2.26,2.26-5.39,3.66-8.84,3.66H424.33c-6.91,0-12.5-5.59-12.5-12.5 C411.83,256.342,417.42,250.742,424.33,250.742z M575.67,650.202H424.33c-6.91,0-12.5-5.59-12.5-12.5c0-6.9,5.59-12.5,12.5-12.5 h151.34c6.91,0,12.5,5.6,12.5,12.5C588.17,644.612,582.58,650.202,575.67,650.202z M644.53,456.882c0,7.34-5.49,13.51-12.78,14.37 l-1.25,0.15c-12.46,1.47-23.03,9.67-27.81,21.28c-0.06,0.14-0.11,0.27-0.17,0.41c-4.86,11.64-3.25,24.97,4.56,34.87l0.77,0.98 c4.55,5.76,4.06,14.01-1.12,19.2l-9.07,9.06c-5.18,5.19-13.43,5.67-19.19,1.13l-0.99-0.78c-9.9-7.81-23.22-9.41-34.86-4.56 c-0.14,0.06-0.28,0.12-0.41,0.171c-11.61,4.789-19.81,15.35-21.28,27.82l-0.15,1.24c-0.86,7.29-7.04,12.78-14.37,12.78h-12.82 c-7.33,0-13.51-5.49-14.37-12.78l-0.15-1.25c-1.47-12.46-9.67-23.021-21.28-27.81c-0.13-0.05-0.27-0.11-0.41-0.171 c-11.64-4.85-24.96-3.25-34.86,4.56l-0.99,0.78c-5.76,4.54-14.01,4.06-19.19-1.13l-9.07-9.06c-5.18-5.19-5.67-13.44-1.12-19.2 l0.77-0.98c7.81-9.9,9.42-23.23,4.56-34.87c-0.05-0.14-0.11-0.27-0.17-0.41c-4.78-11.61-15.34-19.81-27.81-21.28l-1.25-0.15 c-7.29-0.86-12.78-7.03-12.78-14.37v-12.81c0-7.34,5.49-13.52,12.78-14.38l1.25-0.14c12.47-1.47,23.03-9.68,27.81-21.28 c0.06-0.14,0.12-0.28,0.17-0.41c4.86-11.64,3.25-24.97-4.56-34.87l-0.77-0.98c-4.55-5.76-4.06-14.01,1.12-19.2l9.07-9.06 c5.18-5.19,13.43-5.67,19.19-1.13l0.99,0.78c9.9,7.81,23.22,9.41,34.86,4.56c0.14-0.06,0.28-0.12,0.41-0.17 c11.61-4.79,19.81-15.35,21.28-27.82l0.15-1.25c0.86-7.28,7.04-12.771,14.37-12.771h12.82c7.33,0,13.51,5.49,14.37,12.771 l0.15,1.25c1.47,12.47,9.67,23.03,21.28,27.82c0.13,0.05,0.27,0.11,0.41,0.17c11.64,4.85,24.96,3.25,34.86-4.56l0.99-0.78 c5.76-4.54,14.01-4.06,19.19,1.13l9.07,9.06c5.18,5.19,5.67,13.44,1.12,19.2l-0.77,0.98c-7.81,9.9-9.42,23.23-4.56,34.87 c0.06,0.13,0.11,0.27,0.17,0.41c4.78,11.6,15.35,19.81,27.81,21.28l1.25,0.14c7.29,0.86,12.78,7.04,12.78,14.38V456.882z" style="fill:#000000;"/> <path d="M494.69,369.462c-40.44,2.59-73.12,35.26-75.7,75.71c-3.13,48.93,37.38,89.44,86.32,86.32 c40.44-2.59,73.12-35.26,75.7-75.71C584.14,406.842,543.63,366.332,494.69,369.462z M487.5,488.642c0,5.15-4.18,9.33-9.33,9.33 h-16.34c-5.15,0-9.32-4.18-9.32-9.33v-16.34c0-5.15,4.17-9.33,9.32-9.33h16.34c5.15,0,9.33,4.18,9.33,9.33V488.642z M487.5,428.652 c0,5.15-4.18,9.32-9.33,9.32h-16.34c-5.15,0-9.32-4.17-9.32-9.32v-16.34c0-5.15,4.17-9.33,9.32-9.33h16.34 c5.15,0,9.33,4.18,9.33,9.33V428.652z M547.49,488.642c0,5.15-4.17,9.33-9.32,9.33h-16.34c-5.15,0-9.33-4.18-9.33-9.33v-16.34 c0-5.15,4.18-9.33,9.33-9.33h16.34c5.15,0,9.32,4.18,9.32,9.33V488.642z M547.49,428.652c0,5.15-4.17,9.32-9.32,9.32h-16.34 c-5.15,0-9.33-4.17-9.33-9.32v-16.34c0-5.15,4.18-9.33,9.33-9.33h16.34c5.15,0,9.32,4.18,9.32,9.33V428.652z" style="fill:#000000;"/> <path d="M817.51,342.902v-60.82c16.34-5.27,28.16-20.6,28.16-38.7c0-22.46-18.2-40.66-40.66-40.66 c-22.46,0-40.67,18.2-40.67,40.66c0,18.1,11.83,33.43,28.17,38.7v60.82c0,8.93-7.27,16.2-16.21,16.2h-64.85v25h64.85 C799.02,384.102,817.51,365.622,817.51,342.902z" style="fill:#000000;"/> <path d="M207.49,342.902v-60.82c16.34-5.27,28.17-20.6,28.17-38.7c0-22.46-18.21-40.66-40.67-40.66 s-40.66,18.2-40.66,40.66c0,18.1,11.82,33.43,28.16,38.7v60.82c0,22.72,18.49,41.2,41.21,41.2h64.85v-25H223.7 C214.76,359.102,207.49,351.832,207.49,342.902z" style="fill:#000000;"/> <path d="M805.01,411.822c-18.3,0-33.77,12.08-38.88,28.7h-54.68v23.92h54.68 c5.11,16.63,20.58,28.71,38.88,28.71c22.46,0,40.66-18.21,40.66-40.67C845.67,430.022,827.47,411.822,805.01,411.822z" style="fill:#000000;"/> <path d="M194.99,411.822c-22.46,0-40.66,18.2-40.66,40.66c0,22.46,18.2,40.67,40.66,40.67 c18.3,0,33.77-12.08,38.88-28.71h54.68v-23.92h-54.68C228.76,423.902,213.29,411.822,194.99,411.822z" style="fill:#000000;"/> <path d="M182.49,558.052v60.81c-16.34,5.28-28.16,20.61-28.16,38.7c0,22.46,18.2,40.67,40.66,40.67 s40.67-18.21,40.67-40.67c0-18.09-11.83-33.42-28.17-38.7v-60.81c0-8.93,7.27-16.2,16.21-16.2h64.85v-25H223.7 C200.98,516.852,182.49,535.332,182.49,558.052z" style="fill:#000000;"/> <path d="M817.51,618.862v-60.81c0-22.72-18.49-41.2-41.21-41.2h-64.85v25h64.85 c8.94,0,16.21,7.27,16.21,16.2v60.81c-16.34,5.28-28.17,20.61-28.17,38.7c0,22.46,18.21,40.67,40.67,40.67 c22.46,0,40.66-18.21,40.66-40.67C845.67,639.472,833.85,624.142,817.51,618.862z" style="fill:#000000;"/> </g> </g>
</svg>