<?xml version="1.0" encoding="UTF-8" standalone="no"?>
<svg
   height="900"
   version="1.2"
   width="900"
   id="svg236"
   xml:space="preserve"
   sodipodi:docname="Rootster-pecat-plain-white.svg"
   inkscape:version="1.3.2 (091e20ef0f, 2023-11-25, custom)"
   xmlns:inkscape="http://www.inkscape.org/namespaces/inkscape"
   xmlns:sodipodi="http://sodipodi.sourceforge.net/DTD/sodipodi-0.dtd"
   xmlns="http://www.w3.org/2000/svg"
   xmlns:svg="http://www.w3.org/2000/svg"><sodipodi:namedview
     id="namedview1"
     pagecolor="#505050"
     bordercolor="#ffffff"
     borderopacity="1"
     inkscape:showpageshadow="0"
     inkscape:pageopacity="0"
     inkscape:pagecheckerboard="1"
     inkscape:deskcolor="#505050"
     inkscape:zoom="1.3233333"
     inkscape:cx="450"
     inkscape:cy="450"
     inkscape:window-width="2556"
     inkscape:window-height="1397"
     inkscape:window-x="0"
     inkscape:window-y="19"
     inkscape:window-maximized="1"
     inkscape:current-layer="svg236" /><defs
     id="defs1" /><g
     id="g268"
     style="display:inline;fill:#ffffff"
     transform="translate(-1237.7107,310.08818)"><path
       style="fill:#ffffff;fill-opacity:1"
       d="m 1627.136,-136.98553 c 0,0 -24.46,20.94275 -39.4114,19.28593 -9.36,-1.03721 -16.3417,-2.87906 -24.9187,-11.8045 -4.541,-4.72555 -9.4799,-18.34228 -9.4799,-18.34228 0,0 16.4988,1.12679 24.3504,-0.45143 7.2694,-1.46121 19.034,-6.96477 19.034,-6.96477 0,0 -17.5271,-7.31529 -23.2025,-15.11159 -4.9172,-6.75477 -5.5882,-24.43407 -5.5882,-24.43407 0,0 20.8362,5.8303 30.5296,10.98105 11.5896,6.15829 27.2227,5.42228 27.2227,5.42228 0,0 -9.7153,-16.58383 -9.9439,-25.27672 -0.3804,-14.46511 6.1755,-22.44569 6.1755,-22.44569 0,0 15.5203,20.2902 25.038,28.33419 7.6351,6.45284 23.8879,15.66201 23.8879,15.66201 0,0 -3.5312,-14.46059 -2.675,-21.68781 0.7959,-6.71797 8.0218,-18.64222 8.0218,-18.64222 0,0 16.3922,13.68051 24.9286,20.08305 7.2086,5.40669 23.0729,14.2218 23.0729,14.2218 0,0 -0.1554,-11.74629 6.5093,-23.08742 3.4047,-5.7938 17.3407,-14.92296 17.3407,-14.92296 0,0 11.1864,17.57986 15.3019,27.22278 3.8017,8.90777 7.5494,28.05743 7.5494,28.05743 0,0 7.1862,-5.63428 11.1484,-7.86787 4.405,-2.48324 9.0744,-6.40421 9.0744,-6.40421 0,0 18.2737,28.14207 18.7177,44.21414 0.1608,5.82171 -1.7694,12.49465 -6.6069,15.73756 -9.1598,6.14039 -20.8573,2.01098 -31.6228,-0.37855 -25.1116,-5.57382 -45.1073,-27.57066 -70.5694,-31.2236 -23.6202,-3.3887 -47.7919,3.70914 -70.9675,9.39163 -14.6133,3.58307 -27.4208,14.16681 -42.4122,15.44926 -15.3392,1.3122 -23.1065,-3.50145 -23.1065,-3.50145 0,0 6.1128,11.55516 23.4978,12.36675 18.9205,0.88328 39.1039,-13.88272 39.1039,-13.88272 z"
       id="path269" /><path
       style="fill:#ffffff;fill-opacity:0.995365"
       d="m 1798.9109,-106.5489 c -20.5915,1.22618 -42.1417,35.204981 -42.1417,35.204981 0,0 22.096,-13.51052 34.642,-16.438458 10.9221,-2.548944 33.6259,-0.671521 33.6259,-0.671521 0,0 -15.4947,-18.728082 -26.1262,-18.095002 z"
       id="path270" /><path
       style="fill:#ffffff;fill-opacity:0.995365"
       d="m 1771.0158,-69.911499 h 22.8832 c 0,0 3.767,-3.889435 5.8922,-5.552907 2.6028,-2.037306 9.5607,-5.514473 9.5607,-5.514473 0,0 -14.6677,-0.265493 -21.0104,1.605356 -6.3115,1.861661 -17.3257,9.462024 -17.3257,9.462024 z"
       id="path271" /><path
       style="fill:#ffffff;fill-opacity:0.995365"
       d="m 1777.6804,-104.55517 c 0,0 -23.8466,-15.96393 -39.149,-27.68837 -11.611,-8.89605 -41.8381,-15.4479 -41.8381,-15.4479 0,0 12.4216,5.88872 18.1,9.71547 3.5922,2.42075 6.9926,5.14968 6.9926,5.14968 0,0 -16.2634,-6.7819 -27.2815,-8.48027 -10.9236,-1.68379 -34.3863,1.61375 -34.3863,1.61375 0,0 10.8646,0.35252 16.1119,1.73136 2.805,0.73706 7.9901,3.17068 7.9901,3.17068 0,0 -17.6677,-0.17245 -26.249,1.61879 -9.4685,1.97643 -27.2588,9.94939 -27.2588,9.94939 l 11.5771,-2.24282 10.8425,0.56864 c 0,0 -28.6686,13.62985 -40.447,23.96762 -13.149,11.540676 -32.3881,41.300737 -32.3881,41.300737 0,0 16.2325,-11.398833 24.6975,-16.552461 6.4154,-3.90581 19.7385,-10.867904 19.7385,-10.867904 0,0 -51.6714,51.229943 -73.03,101.668912 -37.5455,88.664686 -20.2258,143.836626 -20.2258,143.836626 0,0 2.227,-17.4079 3.8357,-26.02919 1.2747,-6.8312 4.6033,-20.33274 4.6033,-20.33274 0,0 2.2769,36.01574 6.4393,53.48307 4.5333,19.02316 20.0096,55.14974 20.0096,55.14974 0,0 -6.9487,-65.51407 -1.2265,-97.51356 3.9524,-22.10252 24.1369,-62.886341 24.1369,-62.886341 0,0 -9.6953,52.685061 -7.559,79.078341 2.4087,29.75935 22.752,86.63217 22.752,86.63217 0,0 -2.1867,-22.72813 -2.2484,-34.12893 -0.046,-8.46388 1.3949,-25.35368 1.3949,-25.35368 0,0 5.1536,31.51675 12.7927,51.34008 11.6463,30.22191 21.9611,88.13464 21.9611,88.13464 0,0 5.7392,-55.18635 2.2811,-86.49253 -5.802,-52.52613 -5.5634,-96.8683 -2.9681,-148.704304 2.3358,-46.65125 22.579,-86.562575 22.579,-86.562575 0,0 -19.2086,-18.601221 -13.0505,-47.430806 3.455,-16.174947 27.0408,-38.064265 27.0408,-38.064265 l -6.4197,-0.25451 c 0,0 20.0318,-11.32765 33.8086,-10.6054 13.262,0.69526 32.5908,13.634788 45.8239,14.751867 11.0921,0.936341 30.2167,-7.223007 30.2167,-7.223007 z"
       id="path272" /><path
       style="fill:#ffffff;fill-opacity:0.995365"
       d="m 1669.8642,-7.8736574 c 0,0 -41.076,91.5334024 -23.7682,154.6359074 26.1258,95.25146 15.4763,136.75371 15.4763,136.75371 0,0 22.9412,-39.65493 25.033,-73.31405 1.4278,-22.97327 -9.0145,-93.59907 -9.0145,-93.59907 0,0 32.5354,69.10493 36.2333,106.38351 3.2278,32.53966 -12.7679,97.26363 -12.7679,97.26363 0,0 45.1455,-42.91492 46.9476,-94.28518 1.3135,-37.44414 -20.6518,-84.51282 -20.6518,-84.51282 0,0 37.2919,44.72719 48.4085,71.18002 12.6128,30.01309 19.2533,95.75029 19.2533,95.75029 0,0 31.0057,-55.32437 11.5356,-111.80809 -4.0104,-11.63427 -13.5313,-42.18176 -20.8653,-52.58103 -38.0973,-54.020533 -58.8848,-100.074631 -58.8848,-100.074631 0,0 53.9727,76.091291 89.0931,106.066731 16.883,14.40973 44.1207,43.82826 57.7815,68.56486 14.3123,25.9164 14.6562,46.84585 14.6562,46.84585 0,0 15.2981,-16.36648 12.9268,-48.68155 -1.2222,-16.6559 -15.3932,-47.67877 -15.3932,-47.67877 0,0 27.7207,33.36794 34.0418,53.55391 5.5078,17.58882 2.2506,55.24723 2.2506,55.24723 0,0 8.7269,-23.72776 9.2316,-51.4107 0.2771,-15.19605 -4.9753,-34.15606 -8.3792,-45.02862 -9.1695,-29.28866 -53.1705,-75.16678 -53.1705,-75.16678 0,0 19.0773,10.76635 27.2455,17.9458 10.9049,9.58495 28.4277,32.99943 28.4277,32.99943 0,0 -11.7686,-24.23772 -26.6104,-38.47214 -13.5305,-12.97673 -57.4933,-43.066189 -57.4933,-43.066189 l 25.4924,37.367099 -59.6671,-54.003467 -11.2914,7.433222 37.1544,47.892955 -53.5298,-45.138 c 0,0 -24.4555,2.191925 -43.0208,-21.745305 -8.9064,-11.48343 -15.8448,-40.6161933 -15.8448,-40.6161933 0,0 -0.3106,9.8126983 0.2287,14.6752213 0.513,4.625893 2.8467,13.669485 2.8467,13.669485 0,0 -6.6355,-14.04171 -8.7874,-21.468777 -1.7672,-6.0993601 -3.3266,-18.7579436 -3.3266,-18.7579436 l -9.297,3.2986541 c 0,0 -2.6922,25.4839315 -2.8601,38.2775975 -0.1721,13.114998 1.9013,39.30242 1.9013,39.30242 0,0 -9.7046,-28.710641 -11.5305,-43.647853 -1.3849,-11.329781 0.5137,-34.2384833 0.5137,-34.2384833 z"
       id="path273" /><path
       style="fill:#ffffff;fill-opacity:0.995365"
       d="m 1749.3241,-84.500961 c 0,0 -11.3525,37.315021 -24.9169,50.278062 -9.113,8.708974 -21.8256,16.932844 -34.3761,15.75829 -20.9154,-1.9574 -27.8852,-13.639795 -30.4289,-27.840701 -3.3887,-18.918686 13.7801,-36.209786 13.7801,-36.209786 v 6.420875 l 2.7551,-7.88286 4.9777,-1.874957 c 0,0 3.64,14.274547 15.2433,17.706885 5.8082,1.71813 22.1965,4.755612 26.8364,1.09873 13.963,-11.004946 26.1293,-17.454538 26.1293,-17.454538 z"
       id="path274" /><path
       style="fill:#ffffff;fill-opacity:0.995365"
       d="m 1766.9797,-57.130333 c 8.4218,14.955587 18.1712,29.183522 16.7708,44.647691 0,0 -5.4388,-8.790871 -16.215,-8.208218 -11.749,0.635251 -14.6505,10.21076 -14.6505,10.21076 -2.119,-11.488585 -1.6063,-26.311435 -0.4811,-41.910266 0,0 -11.2925,38.587893 -10.7971,58.367659 0.2891,11.542937 0.7134,24.745051 7.9981,33.703668 7.3837,9.080436 20.1596,16.205121 31.7906,14.903656 11.3203,-1.266706 22.9715,-9.10573 27.1911,-21.530573 3.8197,-11.24761 0.2528,-28.9950609 -5.2304,-42.3870759 -7.5001,-18.3175761 -36.3765,-47.7973011 -36.3765,-47.7973011 z"
       id="path275" /><path
       style="fill:#ffffff;fill-opacity:0.995365"
       d="m 1809.4101,-21.996144 c 0,0 25.9514,17.5686765 31.3149,25.7334484 5.533,8.4230046 11.2645,15.2276026 9.7966,25.1978836 -1.0124,6.876382 -6.6742,15.83677 -13.1458,18.372155 -6.7318,2.637324 -22.7247,-2.757681 -22.7247,-2.757681 5.292,-7.017019 7.3702,-22.933501 0.5166,-39.9939978 l 1.1264,-0.3543856 c 3.9749,13.8666594 8.4279,9.5489364 9.136,9.1014014 5.9561,-3.7646174 -16.02,-35.298824 -16.02,-35.298824 z"
       id="path276" /><path
       style="display:inline;fill:#ffffff;fill-opacity:1"
       d="m 1518.232,-120.64778 h -237.339 l 406.5743,663.56165 110.8119,-182.16551 c 0,0 44.8158,-23.63037 42.5182,-85.69391 -0.089,-2.41696 -10.8502,32.57003 -29.7984,52.45843 -21.4276,22.49083 -50.6587,30.93365 -50.6587,30.93365 0,0 34.8947,-47.85767 6.9204,-101.92008 -1.2367,-2.39007 2.3364,13.91719 -1.7369,43.54384 -3.5809,26.04516 -24.0219,55.19447 -24.0219,55.19447 l -55.5683,90.31262 -314.201,-516.23695 h 187.8503 l 1.8308,-4.395946 C 1524.55,-94.610462 1518.232,-120.64778 1518.232,-120.64778 Z"
       id="path236" /><path
       style="fill:#ffffff;fill-opacity:1"
       d="m 1853.4708,-120.81191 240.1191,0.12715 -132.1725,214.144013 c 0,0 -12.3058,-13.079569 -18.836,-19.198376 -6.1331,-5.746587 -19.315,-16.313874 -19.315,-16.313874 l 77.8318,-128.564291 -127.1656,-0.01185 c 0,0 -1.4282,-17.829251 -4.6601,-25.963177 -3.4118,-8.586595 -15.8017,-24.219595 -15.8017,-24.219595 z"
       id="path237" /><path
       style="fill:#ffffff;fill-opacity:1"
       d="m 1499.8809,84.0815 -79.0125,-128.443112 h 133.7641 c 0,0 -27.669,45.09004002 -36.7445,66.284745 -9.3519,21.84044 -18.0071,62.158367 -18.0071,62.158367 z"
       id="path238" /><path
       style="fill:#ffffff;fill-opacity:1"
       d="m 1594.1463,-102.57002 -12.4249,13.838655 c 0,0 -26.9893,-7.672665 -42.9891,-31.427275 -13.5782,-20.15912 -11.6301,-50.45541 -11.6301,-50.45541 h 18.2103 c 0,0 -4.3824,-6.23823 -2.0432,-27.09404 0.9981,-8.89869 7.1188,-25.90305 7.1188,-25.90305 0,0 16.1783,2.38896 23.9809,4.73662 6.0703,1.82648 17.5928,7.22198 17.5928,7.22198 0,0 -2.176,-10.12915 9.7096,-28.37315 5.7798,-8.87179 26.0137,-18.22955 26.0137,-18.22955 0,0 8.5198,10.04795 12.2922,15.43614 3.8402,5.48501 10.4842,17.13395 10.4842,17.13395 0,0 6.2721,-12.0603 10.0264,-17.71072 2.6122,-3.93152 8.6571,-11.20617 8.6571,-11.20617 0,0 15.3809,9.21995 22.6814,14.40974 6.961,4.94833 20.0828,15.91052 20.0828,15.91052 0,0 9.754,-15.82683 17.3847,-20.54319 10.2524,-6.33667 25.1232,-13.30215 25.1232,-13.30215 0,0 12.5991,16.71422 18.035,25.63733 4.8918,8.03007 12.69,24.33676 12.69,24.33676 l 17.021,-9.24547 c 0,0 27.0436,50.04838 29.8139,62.49242 7.0937,31.86359 -2.1163,39.22918 -2.1163,39.22918 0,0 15.3332,11.12032 19.7381,21.727714 3.3188,7.991899 4.7251,29.963202 4.7251,29.963202 h -29.1141 l 30.8919,20.023314 h 97.486 l -53.1716,87.561267 -4.4433,-2.094384 c 0,0 3.3712,-27.433696 -8.4999,-47.6956759 -13.8358,-23.6154551 -34.2635,-33.5896851 -34.2635,-33.5896851 0,0 -25.6697,-8.153454 -38.2713,-12.885417 -5.4078,-2.030679 -16.0041,-6.647185 -16.0041,-6.647185 0,0 9.078,-12.127849 15.496,-15.731824 6.8331,-3.837068 22.8891,-5.368282 22.8891,-5.368282 0,0 -7.0208,-13.984802 -12.3636,-19.540315 -5.065,-5.266609 -18.0527,-12.434589 -18.0527,-12.434589 0,0 16.3177,-11.40486 8.1989,-39.18422 -4.6322,-15.84972 -20.8812,-44.92235 -20.8812,-44.92235 l -17.4436,12.41302 c 0,0 -6.9454,-20.09287 -11.865,-29.30118 -4.4274,-8.28695 -15.381,-23.61996 -15.381,-23.61996 0,0 -13.6015,8.45484 -18.858,14.35123 -5.7614,6.46276 -13.2625,22.33286 -13.2625,22.33286 0,0 -15.2245,-12.61412 -23.0872,-18.60143 -6.6231,-5.04337 -20.2764,-14.58006 -20.2764,-14.58006 0,0 -5.7447,6.88339 -9.5225,14.83 -4.1436,8.71607 -4.3953,21.47434 -4.3953,21.47434 0,0 -14.3632,-10.96676 -20.3294,-17.67884 -5.9442,-6.68732 -15.1171,-22.18005 -15.1171,-22.18005 0,0 -10.7763,1.97063 -15.9068,20.00593 -4.6631,16.39193 6.413,31.34325 6.413,31.34325 0,0 -20.9178,-9.20739 -30.7053,-12.53094 -7.5505,-2.56393 -22.7666,-6.64801 -22.7666,-6.64801 0,0 -5.0008,12.99735 -2.9039,25.39512 2.3171,13.69928 12.2888,23.4846 12.2888,23.4846 l -27.1561,0.84773 c 0,0 6.1175,24.34917 14.2488,32.89257 14.7597,15.50769 35.9519,19.69513 35.9519,19.69513 z"
       id="path239" /><path
       style="fill:#ffffff;fill-opacity:1"
       d="m 1656.4244,342.34281 30.7117,51.60422 29.5101,-49.67465 c 0,0 -19.2992,13.08782 -29.3306,13.68151 -9.7596,0.57761 -30.8912,-15.61108 -30.8912,-15.61108 z"
       id="path240" /><path
       style="display:none;fill:#ffffff;fill-opacity:1"
       d="m 1433.1013,180.46663 -65.8693,109.57161 h 133.3688 l -16.2887,-27.1672 h -70.6184 l 35.051,-59.06655 z"
       id="path241" /><path
       style="fill:#ffffff;fill-opacity:1"
       d="m 1809.0232,-39.766583 c 0,0 41.7978,14.086642 60.5475,43.4300438 13.5417,21.1927412 -0.1017,49.6051922 -0.1017,49.6051922 0,0 60.7766,36.542029 93.4013,85.978307 31.7259,48.07454 22.224,101.69811 19.1894,119.60202 -3.059,18.04777 -19.4305,66.46712 -65.7771,96.00453 -54.0059,34.41879 -107.8552,32.41951 -107.8552,32.41951 0,0 31.3984,-19.90345 46.6128,-56.76003 16.9309,-41.01495 0.7099,-89.99546 0.7099,-89.99546 0,0 21.4353,30.28293 22.4596,60.3822 0.9775,28.72627 -19.7681,59.89651 -19.7681,59.89651 0,0 117.9156,-27.87335 107.8059,-157.02836 -6.2266,-79.54598 -122.5517,-144.783989 -122.5517,-144.783989 0,0 30.1269,-18.216676 18.0314,-45.134512 -11.7441,-26.135669 -52.704,-53.615962 -52.704,-53.615962 z"
       id="path250" /><path
       d="m 1707.4531,-101.76367 c -0.1805,0.002 -0.3612,0.01 -0.5429,0.0234 -0.1817,0.0136 -0.3644,0.0334 -0.5469,0.0586 -0.1825,0.0252 -0.3641,0.0554 -0.5469,0.0918 -0.1828,0.0364 -0.3661,0.0798 -0.5488,0.12695 -0.1827,0.0471 -0.3647,0.0988 -0.5469,0.15625 -0.1822,0.0575 -0.3637,0.12013 -0.5449,0.1875 -0.1813,0.0674 -0.3632,0.13992 -0.543,0.2168 -0.1798,0.0769 -0.3591,0.15816 -0.5371,0.24414 -0.178,0.086 -0.3536,0.17682 -0.5293,0.27148 -0.1757,0.0947 -0.3504,0.192 -0.5234,0.29492 -0.173,0.10293 -0.3458,0.211485 -0.5157,0.322269 -0.1698,0.110784 -0.3376,0.223568 -0.5039,0.341797 -0.1662,0.118228 -0.3299,0.241927 -0.4921,0.367187 -0.1623,0.12526 -0.3227,0.252886 -0.4805,0.384766 -0.1578,0.131879 -0.3139,0.266211 -0.4668,0.404297 -0.1529,0.138085 -0.3036,0.279948 -0.4512,0.423828 -0.1476,0.143879 -0.2918,0.290192 -0.4336,0.439453 -0.1418,0.149261 -0.2804,0.300849 -0.416,0.455078 -0.1356,0.154229 -0.2675,0.311918 -0.3965,0.470703 -0.129,0.158786 -0.255,0.319493 -0.3769,0.482422 -0.1219,0.162929 -0.2411,0.327481 -0.3555,0.494141 -0.1144,0.166659 -0.2236,0.335881 -0.3301,0.505859 -0.1064,0.169978 -0.2086,0.340789 -0.3066,0.513672 -0.098,0.172883 -0.192,0.348061 -0.2813,0.523437 -0.089,0.175376 -0.1739,0.351841 -0.2539,0.529297 -0.08,0.177457 -0.1563,0.356033 -0.2265,0.535157 -0.07,0.179123 -0.1352,0.358683 -0.1954,0.539062 -0.06,0.180379 -0.1144,0.359794 -0.164,0.541016 -0.05,0.181221 -0.094,0.363271 -0.1328,0.544922 -0.039,0.18165 -0.072,0.363253 -0.1,0.544921 -0.027,0.181668 -0.047,0.36365 -0.062,0.544922 -0.015,0.181273 -0.024,0.362505 -0.027,0.542969 0,0.19567 -3e-4,0.392693 0.01,0.589844 0.01,0.197151 0.026,0.393644 0.049,0.591797 0.023,0.198153 0.053,0.397027 0.088,0.595703 0.035,0.198676 0.078,0.396983 0.125,0.595703 0.047,0.19872 0.1,0.397418 0.1582,0.595703 0.059,0.198285 0.1236,0.39638 0.1934,0.59375 0.07,0.19737 0.1443,0.393867 0.2246,0.589844 0.08,0.195977 0.1654,0.391832 0.2558,0.585937 0.09,0.194105 0.1871,0.388325 0.2871,0.580078 0.1001,0.191754 0.2053,0.38139 0.3145,0.570313 0.1092,0.188923 0.2219,0.376886 0.3398,0.5625 0.118,0.185614 0.241,0.368955 0.3672,0.550781 0.1263,0.181826 0.2566,0.361504 0.3907,0.539063 0.134,0.177558 0.2706,0.352578 0.4121,0.52539 0.1414,0.172812 0.2872,0.344132 0.4355,0.511719 0.1483,0.167587 0.3003,0.332259 0.4551,0.494141 0.1548,0.161882 0.3119,0.320864 0.4726,0.476562 0.1608,0.155699 0.324,0.307995 0.4903,0.457031 0.1663,0.149037 0.3364,0.293653 0.5078,0.435547 0.1713,0.141895 0.3436,0.279789 0.5195,0.414063 0.176,0.134274 0.3551,0.266403 0.5352,0.392578 0.1801,0.126174 0.363,0.247638 0.5469,0.365234 0.1838,0.117596 0.3676,0.231306 0.5546,0.339844 0.1871,0.108538 0.3766,0.211545 0.5664,0.310547 0.1899,0.099 0.3802,0.192264 0.5723,0.28125 0.1922,0.08899 0.3861,0.173462 0.5801,0.251953 0.194,0.07849 0.3885,0.151232 0.584,0.21875 0.1954,0.06752 0.3915,0.129482 0.5879,0.185547 0.1964,0.05607 0.3929,0.106257 0.5898,0.150391 0.1969,0.04413 0.3949,0.08351 0.5918,0.115234 0.1969,0.03172 0.3934,0.05539 0.5899,0.07422 0.1964,0.01883 0.3922,0.03164 0.5878,0.03711 0.1907,0.0053 0.3835,0.0037 0.5762,-0.0039 0.1927,-0.0076 0.3859,-0.02087 0.5801,-0.04102 0.1942,-0.02014 0.3888,-0.04591 0.584,-0.07813 0.1951,-0.03222 0.3903,-0.07138 0.5859,-0.115234 0.1956,-0.04385 0.3923,-0.09339 0.5879,-0.148438 0.1956,-0.05504 0.3909,-0.115843 0.5859,-0.18164 0.1951,-0.0658 0.3901,-0.136782 0.584,-0.212891 0.194,-0.07611 0.3858,-0.156206 0.5782,-0.242187 0.1923,-0.08598 0.3839,-0.178026 0.5742,-0.273438 0.1902,-0.09541 0.3787,-0.194425 0.5664,-0.298828 0.1876,-0.104403 0.374,-0.213218 0.5586,-0.326172 0.1845,-0.112954 0.3679,-0.230499 0.5488,-0.351562 0.1809,-0.121064 0.3604,-0.246268 0.5371,-0.375 0.1767,-0.128733 0.3514,-0.260523 0.5234,-0.396485 0.1721,-0.135962 0.341,-0.275218 0.5079,-0.417969 0.1669,-0.14275 0.3309,-0.288401 0.4921,-0.4375 0.1613,-0.149098 0.3196,-0.302025 0.4747,-0.457031 0.155,-0.155006 0.3067,-0.312183 0.455,-0.472656 0.1483,-0.160473 0.2926,-0.324735 0.4336,-0.490234 0.1411,-0.1655 0.2788,-0.333821 0.4121,-0.503907 0.1334,-0.170086 0.2636,-0.341393 0.3887,-0.515625 0.1251,-0.174231 0.245,-0.35136 0.3613,-0.529297 0.1163,-0.177936 0.2289,-0.355908 0.336,-0.537109 0.107,-0.181201 0.2094,-0.364802 0.3066,-0.548828 0.097,-0.184026 0.1885,-0.370231 0.2754,-0.556641 0.087,-0.186409 0.168,-0.372194 0.2441,-0.560547 0.076,-0.188353 0.1482,-0.378503 0.2129,-0.568359 0.065,-0.189856 0.1229,-0.379394 0.1758,-0.570312 0.053,-0.190919 0.1001,-0.382679 0.1406,-0.574219 0.041,-0.19154 0.076,-0.38445 0.1036,-0.576172 0.028,-0.191722 0.048,-0.382756 0.062,-0.574219 0.014,-0.191463 0.021,-0.383455 0.021,-0.574219 5e-4,-0.200208 -0.01,-0.400723 -0.019,-0.601562 -0.014,-0.200839 -0.036,-0.400542 -0.064,-0.601563 -0.028,-0.20102 -0.064,-0.402761 -0.1055,-0.603515 -0.042,-0.200755 -0.09,-0.401522 -0.1445,-0.601563 -0.055,-0.20004 -0.1146,-0.398777 -0.1817,-0.597656 -0.067,-0.198879 -0.1398,-0.398434 -0.2187,-0.595703 -0.079,-0.197269 -0.1656,-0.39268 -0.2559,-0.587891 -0.09,-0.19521 -0.1859,-0.389326 -0.2871,-0.582031 -0.1012,-0.192705 -0.2069,-0.384468 -0.3184,-0.574219 -0.1114,-0.18975 -0.2284,-0.378104 -0.3496,-0.564453 -0.1212,-0.186348 -0.2465,-0.370236 -0.3769,-0.552734 -0.1304,-0.182499 -0.2652,-0.362816 -0.4043,-0.541016 -0.1391,-0.1782 -0.2825,-0.353889 -0.4297,-0.527344 -0.1473,-0.173454 -0.2983,-0.345411 -0.4531,-0.513671 -0.1549,-0.168261 -0.3147,-0.333476 -0.4766,-0.496094 -0.1619,-0.162618 -0.3257,-0.321988 -0.4941,-0.478516 -0.1685,-0.156528 -0.3412,-0.310948 -0.5157,-0.460937 -0.1744,-0.14999 -0.3513,-0.29645 -0.5312,-0.439453 -0.18,-0.143004 -0.362,-0.2824 -0.5469,-0.417969 -0.1849,-0.13557 -0.3732,-0.266844 -0.5625,-0.394531 -0.1893,-0.127688 -0.3811,-0.251737 -0.5742,-0.371094 -0.1931,-0.119357 -0.3875,-0.233171 -0.584,-0.343748 -0.1964,-0.11058 -0.3945,-0.21701 -0.5937,-0.31836 -0.1993,-0.10135 -0.4001,-0.19738 -0.6016,-0.28906 -0.2015,-0.0917 -0.4023,-0.17821 -0.6055,-0.25977 -0.2032,-0.0816 -0.4069,-0.15948 -0.6113,-0.23047 -0.2044,-0.071 -0.4102,-0.13534 -0.6152,-0.19531 -0.2051,-0.06 -0.4101,-0.11556 -0.6153,-0.16406 -0.2051,-0.0485 -0.4105,-0.0904 -0.6152,-0.12696 -0.2047,-0.0366 -0.4095,-0.0676 -0.6133,-0.0918 -0.2037,-0.0242 -0.4052,-0.0413 -0.6074,-0.0527 -0.2022,-0.0114 -0.4053,-0.0175 -0.6055,-0.0156 z m 2.4258,3.779295 c 0.1256,0.0022 0.2464,0.0079 0.3613,0.01758 0.1149,0.0097 0.2238,0.02348 0.3262,0.04102 0.07,0.01198 0.1432,0.02843 0.2188,0.04883 0.075,0.0204 0.1545,0.04467 0.2343,0.07227 0.1596,0.05519 0.3255,0.122578 0.4942,0.199218 0.1686,0.07664 0.3387,0.161688 0.5058,0.25 0.1672,0.08831 0.3314,0.181279 0.4864,0.271485 0.3099,0.180412 0.5857,0.355056 0.7832,0.484375 0.1974,0.129318 0.3164,0.21289 0.3164,0.21289 0,0 -0.049,0.02989 -0.1328,0.08789 -0.084,0.058 -0.2016,0.144885 -0.3399,0.255859 -0.1383,0.110974 -0.2968,0.245377 -0.4609,0.404297 -0.082,0.07946 -0.165,0.165355 -0.2481,0.25586 -0.083,0.0905 -0.1656,0.186189 -0.2461,0.287109 -0.08,0.10092 -0.1582,0.207652 -0.2324,0.318359 -0.074,0.110707 -0.1446,0.225838 -0.209,0.345703 -0.064,0.119866 -0.1229,0.244651 -0.1738,0.373047 -0.051,0.128396 -0.095,0.260186 -0.1289,0.396485 -0.034,0.136298 -0.057,0.27635 -0.07,0.419922 -0.01,0.07179 -0.011,0.145263 -0.012,0.21875 -7e-4,0.07349 0,0.147547 0.01,0.222656 0.01,0.07511 0.015,0.14991 0.027,0.226562 0.012,0.07665 0.027,0.154305 0.047,0.232422 0.02,0.07812 0.043,0.156825 0.07,0.236328 0.027,0.0795 0.058,0.159423 0.094,0.240235 0.035,0.08017 0.073,0.157137 0.1132,0.230468 0.04,0.07333 0.081,0.14417 0.125,0.210938 0.044,0.06677 0.092,0.130923 0.1407,0.191406 0.048,0.06048 0.098,0.117396 0.1504,0.171875 0.052,0.05448 0.1047,0.105542 0.1601,0.154297 0.055,0.04875 0.1136,0.09536 0.1719,0.138672 0.1165,0.08662 0.2374,0.161993 0.3633,0.228516 0.1259,0.06652 0.2564,0.123211 0.3886,0.171875 0.1322,0.04866 0.2669,0.09 0.4024,0.123046 0.1354,0.03304 0.2706,0.05846 0.4062,0.07813 0.1357,0.01966 0.2716,0.03249 0.4043,0.04102 0.1328,0.0085 0.2638,0.0121 0.3907,0.01172 0.1268,-3.82e-4 0.2492,-0.0047 0.3671,-0.01172 0.2358,-0.01409 0.4512,-0.0391 0.6329,-0.06641 0.1816,-0.02731 0.3305,-0.05747 0.4335,-0.08008 0.1031,-0.02261 0.1602,-0.03711 0.1602,-0.03711 0,0 0.042,0.09623 0.092,0.277344 0.025,0.09056 0.052,0.202446 0.076,0.333984 0.024,0.131539 0.045,0.281516 0.059,0.451172 0.014,0.169657 0.021,0.359543 0.016,0.564453 0,0.102455 -0.01,0.207628 -0.018,0.31836 -0.01,0.110731 -0.023,0.227053 -0.039,0.345703 -0.017,0.118649 -0.037,0.240978 -0.062,0.367187 -0.025,0.12621 -0.055,0.25526 -0.09,0.388672 -0.035,0.133412 -0.075,0.2699 -0.1211,0.410157 -0.046,0.140256 -0.098,0.284898 -0.1562,0.43164 -0.066,0.166254 -0.1386,0.330035 -0.2207,0.490235 -0.082,0.160199 -0.1723,0.31706 -0.2696,0.470703 -0.097,0.153642 -0.2013,0.302637 -0.3125,0.449218 -0.1111,0.146582 -0.2297,0.290671 -0.3535,0.429688 -0.1238,0.139017 -0.2534,0.273348 -0.3887,0.404297 -0.1352,0.130948 -0.2765,0.258482 -0.4218,0.380859 -0.1454,0.122377 -0.295,0.240214 -0.4493,0.353516 -0.1543,0.113301 -0.3126,0.220496 -0.4746,0.324219 -0.1619,0.103722 -0.3277,0.203235 -0.4961,0.296875 -0.1684,0.09364 -0.34,0.182571 -0.5136,0.265625 -0.1736,0.08305 -0.3498,0.160457 -0.5274,0.232421 -0.1775,0.07196 -0.3569,0.138848 -0.5371,0.199219 -0.1802,0.06037 -0.3613,0.113836 -0.5429,0.16211 -0.1817,0.04827 -0.3631,0.09128 -0.545,0.126953 -0.1818,0.03567 -0.3641,0.06532 -0.5449,0.08789 -0.1808,0.02257 -0.3605,0.03791 -0.5391,0.04687 -0.2214,0.01112 -0.4439,0.01152 -0.666,0.0039 -0.2221,-0.0076 -0.4446,-0.02312 -0.666,-0.04883 -0.2213,-0.02571 -0.441,-0.06034 -0.6601,-0.103515 -0.2192,-0.04317 -0.4368,-0.09624 -0.6524,-0.15625 -0.2156,-0.06001 -0.43,-0.126918 -0.6406,-0.203125 -0.2106,-0.07621 -0.4169,-0.160177 -0.6211,-0.251953 -0.2042,-0.09178 -0.4052,-0.192114 -0.6016,-0.298828 -0.1963,-0.106715 -0.389,-0.220776 -0.5761,-0.341797 -0.1872,-0.121022 -0.3685,-0.248116 -0.545,-0.382813 -0.1765,-0.134696 -0.3472,-0.276088 -0.5117,-0.423828 -0.1644,-0.14774 -0.3236,-0.302739 -0.4746,-0.462891 -0.151,-0.160152 -0.2936,-0.326114 -0.4297,-0.498046 -0.1361,-0.171933 -0.2649,-0.350123 -0.3847,-0.533204 -0.1199,-0.183081 -0.2319,-0.370855 -0.334,-0.564453 -0.1022,-0.193598 -0.1943,-0.392219 -0.2774,-0.595703 -0.083,-0.203484 -0.1562,-0.412262 -0.2187,-0.625 -0.064,-0.218041 -0.1178,-0.437174 -0.1621,-0.65625 -0.044,-0.219075 -0.08,-0.436985 -0.1055,-0.65625 -0.025,-0.219265 -0.04,-0.439594 -0.047,-0.658203 -0.01,-0.218609 0,-0.437189 0.01,-0.654297 0.012,-0.217108 0.032,-0.431723 0.061,-0.646484 0.029,-0.214762 0.067,-0.429055 0.1133,-0.640625 0.046,-0.211571 0.1,-0.421372 0.1621,-0.628906 0.062,-0.207535 0.1328,-0.412582 0.2109,-0.615235 0.078,-0.202653 0.1645,-0.402683 0.2578,-0.599609 0.093,-0.196926 0.1928,-0.391677 0.3008,-0.582031 0.108,-0.190355 0.2236,-0.375656 0.3457,-0.558594 0.1221,-0.182938 0.2511,-0.362434 0.3867,-0.53711 0.1357,-0.174676 0.2791,-0.344196 0.4278,-0.509765 0.1486,-0.165569 0.3038,-0.326805 0.4648,-0.482422 0.1611,-0.155617 0.3271,-0.306352 0.5,-0.451172 0.1729,-0.14482 0.353,-0.284791 0.5371,-0.417969 0.084,-0.06088 0.1745,-0.120734 0.2735,-0.179687 0.099,-0.05895 0.2064,-0.117201 0.3183,-0.173828 0.1119,-0.05663 0.2285,-0.11211 0.3516,-0.166016 0.123,-0.05391 0.2524,-0.105462 0.3847,-0.15625 0.2648,-0.101576 0.5449,-0.196477 0.836,-0.283203 0.2911,-0.08673 0.5935,-0.16567 0.8965,-0.234375 0.3029,-0.0687 0.608,-0.126314 0.9082,-0.173828 0.3002,-0.04751 0.594,-0.08427 0.8769,-0.107422 0.1415,-0.01158 0.2796,-0.0205 0.4141,-0.02539 0.1344,-0.0049 0.265,-0.0061 0.3906,-0.0039 z"
       style="fill:#ffffff;fill-opacity:1"
       id="path268" /></g></svg>
